<?xml version="1.0" encoding="UTF-8" standalone="no"?>
<!-- Uploaded to: SVG Repo, www.svgrepo.com, Generator: SVG Repo Mixer Tools -->

<svg
   width="1349.0748"
   height="899.07483"
   viewBox="0 0 107.92599 71.925987"
   version="1.1"
   id="svg1715"
   sodipodi:docname="a-year-in-review-banner.svg"
   inkscape:version="1.2.2 (b0a8486541, 2022-12-01)"
   xmlns:inkscape="http://www.inkscape.org/namespaces/inkscape"
   xmlns:sodipodi="http://sodipodi.sourceforge.net/DTD/sodipodi-0.dtd"
   xmlns="http://www.w3.org/2000/svg"
   xmlns:svg="http://www.w3.org/2000/svg"
   xmlns:rdf="http://www.w3.org/1999/02/22-rdf-syntax-ns#"
   xmlns:cc="http://creativecommons.org/ns#"
   xmlns:dc="http://purl.org/dc/elements/1.1/">
  <sodipodi:namedview
     id="namedview1717"
     pagecolor="#ffffff"
     bordercolor="#666666"
     borderopacity="1.0"
     inkscape:showpageshadow="2"
     inkscape:pageopacity="0.0"
     inkscape:pagecheckerboard="0"
     inkscape:deskcolor="#d1d1d1"
     showgrid="false"
     inkscape:zoom="0.53386562"
     inkscape:cx="921.58023"
     inkscape:cy="576.92421"
     inkscape:window-width="3440"
     inkscape:window-height="1400"
     inkscape:window-x="0"
     inkscape:window-y="0"
     inkscape:window-maximized="1"
     inkscape:current-layer="svg1715" />
  <defs
     id="defs1682">
    <style
       id="style1680">.cls-1{fill:#ffd578;}.cls-1,.cls-2,.cls-3,.cls-5{stroke:#54596e;stroke-linecap:round;stroke-linejoin:round;stroke-width:2px;}.cls-2{fill:#ff927d;}.cls-3{fill:#ffffff;}.cls-4{fill:#54596e;}.cls-5{fill:none;}</style>
  </defs>
  <title
     id="title1684">heart-hand</title>
  <rect
     style="fill:#ffffff;fill-opacity:1;stroke:none;stroke-width:0.0740118;stroke-miterlimit:2;stroke-dashoffset:9.92504;paint-order:stroke fill markers"
     id="rect7570"
     width="107.92599"
     height="71.925987"
     x="0"
     y="0" />
  <metadata
     id="metadata1719">
    <rdf:RDF>
      <cc:Work
         rdf:about="">
        <dc:title>heart-hand</dc:title>
      </cc:Work>
    </rdf:RDF>
  </metadata>
  <g
     id="g7620"
     transform="translate(2.4739236)">
    <path
       class="cls-1"
       d="m 74.29907,37.989848 -4.25,-21.55 a 2.5,2.5 0 0 0 -2.84,-2.11 v 0 a 2.5,2.5 0 0 0 -2.1,2.84 l 2.87,19.29 z"
       id="path1686" />
    <path
       class="cls-1"
       d="m 77.29907,32.989848 -4.25,-21.55 a 2.5,2.5 0 0 0 -2.84,-2.11 v 0 a 2.5,2.5 0 0 0 -2.1,2.84 l 2.87,19.29 z"
       id="path1688" />
    <path
       class="cls-1"
       d="m 28.67907,37.989848 4.25,-21.55 a 2.5,2.5 0 0 1 2.84,-2.11 v 0 a 2.5,2.5 0 0 1 2.1,2.84 l -2.87,19.29 z"
       id="path1690" />
    <path
       class="cls-1"
       d="m 25.67907,32.989848 4.25,-21.55 a 2.5,2.5 0 0 1 2.84,-2.11 v 0 a 2.5,2.5 0 0 1 2.1,2.84 l -2.87,19.29 z"
       id="path1692" />
    <path
       class="cls-2"
       d="m 67.60907,13.889848 a 9.42,9.42 0 0 0 -13.32,0 l -2.61,2.6 -2.61,-2.6 a 9.42,9.42 0 0 0 -13.32,13.27 l 2.62,2.61 v 0 l 13.31,13.32 13.32,-13.32 v 0 l 2.61,-2.61 a 9.42,9.42 0 0 0 0,-13.27 z"
       id="path1694"
       style="fill:#62b3f6" />
    <path
       class="cls-1"
       d="m 74.71907,5.0098481 a 2.52,2.52 0 0 0 -2.52,2.49 l 2.17,18.3899999 -9.94,15.12 -3.41,-4.74 1.59,-3.67 a 5,5 0 0 0 -2.62,-6.57 l -4.75,11 4.13,18.15 11.47,-3.79 5.4,-7.5 3,-7 a 18.28,18.28 0 0 0 0.84,-12 v 0 l -2.88,-17.3599999 a 2.5,2.5 0 0 0 -2.48,-2.52 z"
       id="path1696" />
    <rect
       class="cls-3"
       x="56.369068"
       y="50.889851"
       width="17"
       height="8"
       id="rect1698" />
    <circle
       class="cls-4"
       cx="69.089073"
       cy="54.859852"
       r="2"
       id="circle1700" />
    <path
       class="cls-1"
       d="m 28.25907,5.0098481 a 2.52,2.52 0 0 1 2.52,2.49 l -2.41,18.3899999 10.18,15.12 3.41,-4.74 -1.59,-3.67 a 5,5 0 0 1 2.62,-6.57 l 4.75,11 -4.17,18.15 -11.43,-3.79 -5.4,-7.5 -3,-7 a 18.28,18.28 0 0 1 -0.84,-12 v 0 l 2.88,-17.3599999 a 2.5,2.5 0 0 1 2.48,-2.52 z"
       id="path1702" />
    <rect
       class="cls-3"
       x="-46.60907"
       y="-58.889851"
       width="17"
       height="8"
       transform="scale(-1)"
       id="rect1704" />
    <circle
       class="cls-4"
       cx="33.889072"
       cy="54.859852"
       r="2"
       id="circle1706" />
    <path
       class="cls-5"
       d="m 46.22907,23.959848 a 7,7 0 0 0 5.14,1.93 7,7 0 0 0 5.1,-1.9"
       id="path1708" />
    <circle
       class="cls-4"
       cx="42.369068"
       cy="18.889849"
       r="2"
       id="circle1710" />
    <circle
       class="cls-4"
       cx="60.369068"
       cy="18.889849"
       r="2"
       id="circle1712" />
  </g>
  <text
     xml:space="preserve"
     style="font-weight:bold;font-size:4.30386px;line-height:1.25;font-family:'Segoe UI';-inkscape-font-specification:'Segoe UI, Bold';fill:#54596e;fill-opacity:1;stroke-width:0.179328"
     x="5.1158605"
     y="67.225357"
     id="text7516"><tspan
       sodipodi:role="line"
       id="tspan7514"
       style="fill:#54596e;fill-opacity:1;stroke-width:0.179328"
       x="5.1158605"
       y="67.225357">A Year of Writing about Web Scraping in Review</tspan></text>
</svg>
