<?xml version="1.0" encoding="UTF-8" standalone="no"?>
<!-- Uploaded to: SVG Repo, www.svgrepo.com, Generator: SVG Repo Mixer Tools -->

<svg
   width="800px"
   height="800px"
   viewBox="0 0 64 64"
   version="1.1"
   id="svg1715"
   sodipodi:docname="blue-heart.svg"
   inkscape:version="1.2.2 (b0a8486541, 2022-12-01)"
   xmlns:inkscape="http://www.inkscape.org/namespaces/inkscape"
   xmlns:sodipodi="http://sodipodi.sourceforge.net/DTD/sodipodi-0.dtd"
   xmlns="http://www.w3.org/2000/svg"
   xmlns:svg="http://www.w3.org/2000/svg"
   xmlns:rdf="http://www.w3.org/1999/02/22-rdf-syntax-ns#"
   xmlns:cc="http://creativecommons.org/ns#"
   xmlns:dc="http://purl.org/dc/elements/1.1/">
  <sodipodi:namedview
     id="namedview1717"
     pagecolor="#ffffff"
     bordercolor="#666666"
     borderopacity="1.0"
     inkscape:showpageshadow="2"
     inkscape:pageopacity="0.0"
     inkscape:pagecheckerboard="0"
     inkscape:deskcolor="#d1d1d1"
     showgrid="false"
     inkscape:zoom="0.53386562"
     inkscape:cx="207.91749"
     inkscape:cy="265.98454"
     inkscape:window-width="3436"
     inkscape:window-height="1396"
     inkscape:window-x="0"
     inkscape:window-y="0"
     inkscape:window-maximized="1"
     inkscape:current-layer="svg1715" />
  <defs
     id="defs1682">
    <style
       id="style1680">.cls-1{fill:#ffd578;}.cls-1,.cls-2,.cls-3,.cls-5{stroke:#54596e;stroke-linecap:round;stroke-linejoin:round;stroke-width:2px;}.cls-2{fill:#ff927d;}.cls-3{fill:#ffffff;}.cls-4{fill:#54596e;}.cls-5{fill:none;}</style>
  </defs>
  <title
     id="title1684">heart-hand</title>
  <path
     class="cls-1"
     d="M 54.93,38.1 50.68,16.55 a 2.5,2.5 0 0 0 -2.84,-2.11 v 0 a 2.5,2.5 0 0 0 -2.1,2.84 l 2.87,19.29 z"
     id="path1686" />
  <path
     class="cls-1"
     d="M 57.93,33.1 53.68,11.55 A 2.5,2.5 0 0 0 50.84,9.44 v 0 a 2.5,2.5 0 0 0 -2.1,2.84 l 2.87,19.29 z"
     id="path1688" />
  <path
     class="cls-1"
     d="m 9.31,38.1 4.25,-21.55 a 2.5,2.5 0 0 1 2.84,-2.11 v 0 a 2.5,2.5 0 0 1 2.1,2.84 l -2.87,19.29 z"
     id="path1690" />
  <path
     class="cls-1"
     d="M 6.31,33.1 10.56,11.55 A 2.5,2.5 0 0 1 13.4,9.44 v 0 a 2.5,2.5 0 0 1 2.1,2.84 l -2.87,19.29 z"
     id="path1692" />
  <path
     class="cls-2"
     d="M 48.24,14 A 9.42,9.42 0 0 0 34.92,14 L 32.31,16.6 29.7,14 A 9.42,9.42 0 0 0 16.38,27.27 L 19,29.88 v 0 L 32.31,43.2 45.63,29.88 v 0 l 2.61,-2.61 a 9.42,9.42 0 0 0 0,-13.27 z"
     id="path1694"
     style="fill:#62b3f6" />
  <path
     class="cls-1"
     d="M 55.35,5.12 A 2.52,2.52 0 0 0 52.83,7.61 L 55,26 45.06,41.12 41.65,36.38 43.24,32.71 a 5,5 0 0 0 -2.62,-6.57 l -4.75,11 4.13,18.15 11.47,-3.79 5.4,-7.5 3,-7 a 18.28,18.28 0 0 0 0.84,-12 v 0 L 57.83,7.64 A 2.5,2.5 0 0 0 55.35,5.12 Z"
     id="path1696" />
  <rect
     class="cls-3"
     x="37"
     y="51"
     width="17"
     height="8"
     id="rect1698" />
  <circle
     class="cls-4"
     cx="49.720001"
     cy="54.970001"
     r="2"
     id="circle1700" />
  <path
     class="cls-1"
     d="m 8.89,5.12 a 2.52,2.52 0 0 1 2.52,2.49 L 9,26 19.18,41.12 22.59,36.38 21,32.71 a 5,5 0 0 1 2.62,-6.57 l 4.75,11 L 24.2,55.29 12.77,51.5 7.37,44 4.37,37 A 18.28,18.28 0 0 1 3.53,25 v 0 L 6.41,7.64 A 2.5,2.5 0 0 1 8.89,5.12 Z"
     id="path1702" />
  <rect
     class="cls-3"
     x="-27.24"
     y="-59"
     width="17"
     height="8"
     transform="scale(-1)"
     id="rect1704" />
  <circle
     class="cls-4"
     cx="14.52"
     cy="54.970001"
     r="2"
     id="circle1706" />
  <path
     class="cls-5"
     d="M 26.86,24.07 A 7,7 0 0 0 32,26 7,7 0 0 0 37.1,24.1"
     id="path1708" />
  <circle
     class="cls-4"
     cx="23"
     cy="19"
     r="2"
     id="circle1710" />
  <circle
     class="cls-4"
     cx="41"
     cy="19"
     r="2"
     id="circle1712" />
  <metadata
     id="metadata1719">
    <rdf:RDF>
      <cc:Work
         rdf:about="">
        <dc:title>heart-hand</dc:title>
      </cc:Work>
    </rdf:RDF>
  </metadata>
</svg>
