<?xml version="1.0" encoding="UTF-8" standalone="no"?>
<!-- Created with Inkscape (http://www.inkscape.org/) -->

<svg
   width="165.36458mm"
   height="181.40701mm"
   viewBox="0 0 165.36458 181.40702"
   version="1.1"
   id="svg8234"
   xml:space="preserve"
   inkscape:version="1.2.2 (b0a8486541, 2022-12-01)"
   sodipodi:docname="books.svg"
   xmlns:inkscape="http://www.inkscape.org/namespaces/inkscape"
   xmlns:sodipodi="http://sodipodi.sourceforge.net/DTD/sodipodi-0.dtd"
   xmlns="http://www.w3.org/2000/svg"
   xmlns:svg="http://www.w3.org/2000/svg"><sodipodi:namedview
     id="namedview8236"
     pagecolor="#ffffff"
     bordercolor="#666666"
     borderopacity="1.0"
     inkscape:showpageshadow="2"
     inkscape:pageopacity="0.0"
     inkscape:pagecheckerboard="0"
     inkscape:deskcolor="#d1d1d1"
     inkscape:document-units="mm"
     showgrid="false"
     inkscape:zoom="0.2973261"
     inkscape:cx="-511.2232"
     inkscape:cy="1103.1658"
     inkscape:window-width="3440"
     inkscape:window-height="1400"
     inkscape:window-x="0"
     inkscape:window-y="0"
     inkscape:window-maximized="1"
     inkscape:current-layer="g8505" /><defs
     id="defs8231">



</defs><g
     inkscape:label="Layer 1"
     inkscape:groupmode="layer"
     id="layer1"
     transform="translate(-74.62703,-77.932086)"><g
       id="g8505"
       transform="matrix(0.41341146,0,0,0.41341146,51.475988,62.646197)">

<path
   d="m 451,440.78 v 30 H 106 c -24.85,0 -45,-20.15 -45,-45 0,-12.42 5.04,-23.681 13.18,-31.82 8.14,-8.14 19.4,-13.18 31.82,-13.18 h 5 40 40 40 200 20 v 30 z"
   style="fill:#febe76"
   id="path8451" />

<path
   d="m 66.833,436.78 c 0,-12.42 5.04,-23.681 13.18,-31.82 8.14,-8.14 19.4,-13.18 31.82,-13.18 h 5 40 40 40 200 H 451 v -11 h -20 -200 -40 -40 -40 -5 c -12.42,0 -23.68,5.04 -31.82,13.18 -8.14,8.14 -13.18,19.4 -13.18,31.82 0,9.831 3.163,18.92 8.514,26.323 -1.732,-4.783 -2.681,-9.942 -2.681,-15.323 z"
   style="fill:#e8a664"
   id="path8453" />

<polygon
   points="151,380.78 111,380.78 111,310.78 131,310.78 351,310.78 361,310.78 431,310.78 431,380.78 231,380.78 191,380.78 "
   style="fill:#fff2d4"
   id="polygon8455" />

<polygon
   points="111,380.78 120.583,380.78 120.583,320.78 140.583,320.78 360.584,320.78 370.584,320.78 431,320.78 431,310.78 361,310.78 351,310.78 131,310.78 111,310.78 "
   style="fill:#f0dca0"
   id="polygon8457" />

<path
   d="M 351,310.78 H 131 v -100 H 236.95 275.94 361 c 13.8,0 26.3,5.6 35.35,14.65 9.051,9.05 14.65,21.55 14.65,35.35 0,27.609 -22.39,50 -50,50 z"
   style="fill:#fcd884"
   id="path8459" />

<path
   d="m 142.554,222.78 h 105.95 38.99 85.061 c 11.134,0 21.419,3.65 29.732,9.812 -1.758,-2.568 -3.744,-4.968 -5.938,-7.162 -9.05,-9.05 -21.55,-14.65 -35.35,-14.65 H 275.939 236.949 131 v 100 h 11.554 z"
   style="fill:#eabf6a"
   id="path8461" />

<path
   d="m 258.2,90.41 c 7.22,-11.07 19.87,-18.36 34.06,-18.36 76.62,0 25.84,138.73 -16.319,138.73 -6.811,0 -13.15,-1.81 -18.591,-4.53 h -0.91 -0.91 c -5.44,2.72 -11.78,4.53 -18.58,4.53 -42.17,0 -92.95,-138.73 -16.33,-138.73 15.42,0 29.02,8.61 35.82,21.31 0.54,-1.01 1.13,-2 1.76,-2.95 z"
   style="fill:#62b3f6;fill-opacity:1"
   id="path8463" />

<g
   id="g8471"
   style="fill:#4a9edc;fill-opacity:1">

<g
   id="g8469"
   style="fill:#4a9edc;fill-opacity:1">

<g
   id="g8467"
   style="fill:#4a9edc;fill-opacity:1">

<path
   d="m 230.899,79.8 c 6.893,0 13.417,1.73 19.137,4.768 -7.411,-7.716 -17.905,-12.518 -29.416,-12.518 -69.614,0 -34.062,114.508 4.65,135.452 C 191.3,174.668 167.537,79.8 230.899,79.8 Z"
   style="fill:#4a9edc;fill-opacity:1"
   id="path8465" />

</g>

</g>

</g>

<rect
   height="20"
   width="20"
   x="251"
   y="250.78"
   id="rect8473"
   style="fill:#54596e;fill-opacity:1" />

<rect
   height="20"
   width="20"
   x="221"
   y="250.78"
   id="rect8475"
   style="fill:#54596e;fill-opacity:1" />

<rect
   height="20"
   width="20"
   x="191"
   y="250.78"
   id="rect8477"
   style="fill:#54596e;fill-opacity:1" />

<rect
   height="20"
   width="20"
   x="161"
   y="250.78"
   id="rect8479"
   style="fill:#54596e;fill-opacity:1" />

<path
   d="M 451,475.78 H 106 c -27.57,0 -50,-22.43 -50,-50 0,-13.356 5.201,-25.913 14.645,-35.355 9.443,-9.443 22,-14.645 35.355,-14.645 h 5 c 2.761,0 5,2.238 5,5 0,2.762 -2.239,5 -5,5 h -5 c -10.685,0 -20.729,4.16 -28.284,11.715 C 70.161,405.05 66,415.095 66,425.78 c 0,22.056 17.944,40 40,40 h 340 v -80 h -15 c -2.762,0 -5,-2.238 -5,-5 0,-2.762 2.238,-5 5,-5 h 20 c 2.762,0 5,2.238 5,5 v 90 c 0,2.762 -2.238,5 -5,5 z"
   id="path8481"
   style="fill:#54596e;fill-opacity:1" />

<path
   d="m 361,315.78 c -2.762,0 -5,-2.238 -5,-5 0,-2.762 2.238,-5 5,-5 24.813,0 45,-20.187 45,-45 0,-12.014 -4.683,-23.313 -13.186,-31.814 C 384.311,220.463 373.012,215.78 361,215.78 H 136 v 95 c 0,2.762 -2.239,5 -5,5 -2.761,0 -5,-2.238 -5,-5 v -100 c 0,-2.761 2.239,-5 5,-5 h 230 c 14.685,0 28.494,5.723 38.885,16.115 10.392,10.39 16.115,24.2 16.115,38.885 0,30.327 -24.673,55 -55,55 z"
   id="path8483"
   style="fill:#54596e;fill-opacity:1" />

<path
   d="M 431,385.78 H 111 c -2.761,0 -5,-2.238 -5,-5 v -70 c 0,-2.762 2.239,-5 5,-5 h 320 c 2.762,0 5,2.238 5,5 v 70 c 0,2.762 -2.238,5 -5,5 z m -315,-10 h 310 v -60 H 116 Z"
   id="path8485"
   style="fill:#54596e;fill-opacity:1" />

<path
   d="m 151,385.78 c -2.761,0 -5,-2.238 -5,-5 v -40 c 0,-2.762 2.239,-5 5,-5 2.761,0 5,2.238 5,5 v 40 c 0,2.762 -2.239,5 -5,5 z"
   id="path8487"
   style="fill:#54596e;fill-opacity:1" />

<path
   d="m 191,385.78 c -2.761,0 -5,-2.238 -5,-5 v -40 c 0,-2.762 2.239,-5 5,-5 2.761,0 5,2.238 5,5 v 40 c 0,2.762 -2.239,5 -5,5 z"
   id="path8489"
   style="fill:#54596e;fill-opacity:1" />

<path
   d="m 231,385.78 c -2.761,0 -5,-2.238 -5,-5 v -40 c 0,-2.762 2.239,-5 5,-5 2.761,0 5,2.238 5,5 v 40 c 0,2.762 -2.239,5 -5,5 z"
   id="path8491"
   style="fill:#54596e;fill-opacity:1" />

<path
   d="M 451,445.78 H 131 c -2.761,0 -5,-2.238 -5,-5 0,-2.762 2.239,-5 5,-5 h 320 c 2.762,0 5,2.238 5,5 0,2.762 -2.238,5 -5,5 z"
   id="path8493"
   style="fill:#54596e;fill-opacity:1" />

<path
   d="M 451,415.78 H 131 c -2.761,0 -5,-2.238 -5,-5 0,-2.762 2.239,-5 5,-5 h 320 c 2.762,0 5,2.238 5,5 0,2.762 -2.238,5 -5,5 z"
   id="path8495"
   style="fill:#54596e;fill-opacity:1" />

<path
   d="m 351,315.78 c -2.762,0 -5,-2.238 -5,-5 v -70 c 0,-2.761 2.238,-5 5,-5 2.762,0 5,2.239 5,5 v 70 c 0,2.762 -2.238,5 -5,5 z"
   id="path8497"
   style="fill:#54596e;fill-opacity:1" />

<path
   d="m 275.94,215.78 c -6.542,0 -13.253,-1.524 -19.5,-4.419 -6.247,2.895 -12.954,4.419 -19.49,4.419 -14.143,0 -29.514,-12.598 -42.172,-34.564 -11.76,-20.408 -18.781,-44.714 -18.781,-65.019 0,-14.341 3.391,-25.902 10.077,-34.362 7.753,-9.81 19.376,-14.784 34.546,-14.784 14.17,0 27.294,6.449 35.828,17.238 8.579,-10.855 21.687,-17.238 35.812,-17.238 15.17,0 26.793,4.974 34.547,14.785 6.687,8.461 10.077,20.022 10.077,34.363 0,20.305 -7.021,44.61 -18.778,65.018 -12.658,21.965 -28.026,34.563 -42.166,34.563 z m -20.41,-14.53 h 1.82 c 0.776,0 1.542,0.181 2.236,0.528 5.236,2.618 10.892,4.002 16.354,4.002 10.159,0 22.995,-11.325 33.5,-29.557 10.76,-18.673 17.443,-41.674 17.443,-60.025 0,-11.866 -2.739,-21.604 -7.923,-28.163 -5.761,-7.29 -14.744,-10.985 -26.701,-10.985 -12.133,0 -23.3,6.016 -29.871,16.092 -0.562,0.846 -1.072,1.702 -1.54,2.576 -0.869,1.626 -2.563,2.642 -4.408,2.642 -1.844,0 -3.539,-1.014 -4.409,-2.64 -6.167,-11.517 -18.203,-18.67 -31.412,-18.67 -11.957,0 -20.94,3.696 -26.701,10.985 -5.183,6.558 -7.923,16.296 -7.923,28.162 0,39.35 28.572,89.583 50.954,89.583 5.457,0 11.108,-1.384 16.343,-4.002 0.696,-0.347 1.461,-0.528 2.238,-0.528 z"
   id="path8499"
   style="fill:#54596e;fill-opacity:1" />

<path
   d="m 258.246,95.641 c -2.252,0 -4.296,-1.531 -4.854,-3.816 -0.034,-0.133 -0.063,-0.262 -0.089,-0.391 -10.052,-41.71 8.759,-53.958 9.566,-54.459 l 5.279,8.492 0.09,-0.058 c -0.136,0.093 -13.453,9.676 -5.18,43.824 0.019,0.078 0.036,0.156 0.051,0.234 0.646,2.679 -0.997,5.377 -3.676,6.03 -0.396,0.098 -0.795,0.144 -1.187,0.144 z"
   id="path8501"
   style="fill:#54596e;fill-opacity:1" />

<path
   d="m 271.724,185.701 c -1.577,0 -3.13,-0.745 -4.103,-2.137 -1.582,-2.264 -1.028,-5.381 1.235,-6.962 13.325,-9.311 17.975,-26.965 18.02,-27.142 0.686,-2.676 3.413,-4.288 6.084,-3.603 2.676,0.686 4.289,3.409 3.604,6.084 -0.223,0.87 -5.648,21.447 -21.98,32.858 -0.873,0.609 -1.871,0.902 -2.86,0.902 z"
   id="path8503"
   style="fill:#54596e;fill-opacity:1" />

</g><g
       id="Layer_1"
       transform="matrix(0.41341146,0,0,0.41341146,51.475988,62.646197)" /></g></svg>
