<?xml version="1.0" encoding="UTF-8" standalone="no"?>
<!-- Created with Inkscape (http://www.inkscape.org/) -->

<svg
   width="211.66667mm"
   height="211.66667mm"
   viewBox="0 0 211.66667 211.66667"
   version="1.1"
   id="svg6569"
   xml:space="preserve"
   inkscape:version="1.2.2 (b0a8486541, 2022-12-01)"
   sodipodi:docname="guide.svg"
   xmlns:inkscape="http://www.inkscape.org/namespaces/inkscape"
   xmlns:sodipodi="http://sodipodi.sourceforge.net/DTD/sodipodi-0.dtd"
   xmlns="http://www.w3.org/2000/svg"
   xmlns:svg="http://www.w3.org/2000/svg"><sodipodi:namedview
     id="namedview6571"
     pagecolor="#ffffff"
     bordercolor="#666666"
     borderopacity="1.0"
     inkscape:showpageshadow="2"
     inkscape:pageopacity="0.0"
     inkscape:pagecheckerboard="0"
     inkscape:deskcolor="#d1d1d1"
     inkscape:document-units="mm"
     showgrid="false"
     inkscape:zoom="0.4204826"
     inkscape:cx="347.22007"
     inkscape:cy="615.9589"
     inkscape:window-width="3440"
     inkscape:window-height="1400"
     inkscape:window-x="0"
     inkscape:window-y="0"
     inkscape:window-maximized="1"
     inkscape:current-layer="layer1" /><defs
     id="defs6566">
	
	
	
	
	
	
	
	
	
	
</defs><g
     inkscape:label="Layer 1"
     inkscape:groupmode="layer"
     id="layer1"
     transform="translate(-48.95904,-79.16243)"><path
       class="pictogram_vijf"
       d="M 240.78196,79.16243 H 154.79237 V 290.8291 h 85.98959 c 10.91406,0 19.84375,-8.92969 19.84375,-19.84375 V 99.00618 c 0,-10.914063 -8.92969,-19.84375 -19.84375,-19.84375 z"
       id="path6861"
       style="fill:#62b3f6;fill-opacity:1;stroke-width:6.61458" /><path
       class="pictogram_zes"
       d="m 68.80279,79.16243 c -10.914063,0 -19.84375,8.929687 -19.84375,19.84375 v 171.97917 c 0,10.91406 8.929687,19.84375 19.84375,19.84375 h 85.98958 V 79.16243 Z"
       id="path6863"
       style="fill:#778da2;fill-opacity:1;stroke-width:6.61458" /><path
       class="pictogram_een"
       d="m 188.44737,285.45805 c -2.54,0 -5.08,-0.96573 -7.01807,-2.9038 l -9.35302,-9.35302 c -3.87615,-3.87614 -3.87615,-10.15338 0,-14.02953 3.87614,-3.87615 10.15338,-3.87615 14.02953,0 l 9.35302,9.35302 c 3.87615,3.87615 3.87615,10.15339 0,14.02953 -1.93807,1.93146 -4.47146,2.9038 -7.01146,2.9038 z m -38.62255,-34.50828 h -13.22917 c -5.48349,0 -9.92187,-4.445 -9.92187,-9.92187 0,-5.47688 4.43838,-9.92188 9.92187,-9.92188 h 13.22917 c 5.48349,0 9.92188,4.445 9.92188,9.92188 0,5.47687 -4.43839,9.92187 -9.92188,9.92187 z"
       id="path6865"
       style="fill:#ffd578;fill-opacity:1;stroke-width:6.61458" /><path
       class="pictogram_vijf"
       d="m 81.423415,111.99061 19.235205,33.31765 H 62.188207 Z m 16.708437,6.85932 H 136.60227 L 117.36706,85.532274 Z"
       id="path6867"
       style="fill:#54596e;fill-opacity:1;stroke-width:6.61458" /><polygon
       class="pictogram_zes"
       points="27.092,12.963 30,18 24.184,18 "
       id="polygon6869"
       transform="matrix(6.6145833,0,0,6.6145833,48.95904,79.16243)"
       style="fill:#54596e;fill-opacity:1" /><path
       class="pictogram_een"
       d="m 88.626696,195.55925 c 4.815417,2.61276 10.841302,0.84667 13.460674,-3.96875 1.87854,-3.43958 4.01506,-6.73364 6.35662,-9.78958 3.32713,-4.34578 2.50692,-10.58333 -1.84547,-13.91047 -4.34578,-3.34036 -10.57672,-2.51354 -13.91047,1.83885 -2.963333,3.86954 -5.662083,8.03011 -8.023489,12.36266 -2.62599,4.81542 -0.846667,10.8413 3.962135,13.46729 z"
       id="path6871"
       style="fill:#ffd578;fill-opacity:1;stroke-width:6.61458" /><path
       class="pictogram_een"
       d="m 193.79857,124.7766 c -4.77573,0.28442 -9.35963,0.68791 -13.75172,1.22369 -5.4438,0.65485 -9.32656,5.58933 -8.67172,11.03313 0.60193,5.04031 4.88818,8.73786 9.83589,8.73786 0,0 8.3476,-0.86651 13.76495,-1.19062 5.47026,-0.32412 9.64406,-5.02047 9.31994,-10.49073 -0.32411,-5.46365 -5.02046,-9.70359 -10.49734,-9.31333 z"
       id="path6873"
       style="fill:#ffd578;fill-opacity:1;stroke-width:6.61458" /><path
       class="pictogram_een"
       d="m 139.18196,135.84279 c -4.52438,1.77271 -8.91646,3.77693 -13.04396,5.96636 -4.83526,2.57307 -6.68073,8.5725 -4.11427,13.41437 1.78593,3.36021 5.2189,5.27183 8.77755,5.27183 3.21469,0 7.28266,-2.91703 15.61042,-6.17141 5.09984,-1.9976 7.62,-7.75229 5.62901,-12.85214 -2.00422,-5.10645 -7.73907,-7.60015 -12.85875,-5.62901 z"
       id="path6875"
       style="fill:#ffd578;fill-opacity:1;stroke-width:6.61458" /><path
       class="pictogram_drie"
       d="m 106.53899,241.21972 12.1576,-12.1576 c 4.02828,-4.02828 4.02828,-10.55688 0,-14.58516 -4.02828,-4.02828 -10.56349,-4.02828 -14.58515,0 l -12.157609,12.1576 -12.157604,-12.1576 c -1.488281,-1.48828 -3.346979,-2.23573 -5.258593,-2.62599 -3.274219,-0.66807 -6.786563,0.086 -9.326563,2.62599 -4.028281,4.02828 -4.028281,10.55688 0,14.58516 l 12.157604,12.1576 -12.157604,12.1576 c -4.028281,4.02829 -4.028281,10.55688 0,14.58516 2.010833,2.01745 4.650052,3.02287 7.289271,3.02287 2.639219,0 5.285052,-1.00542 7.295885,-3.02287 l 12.157604,-12.1576 12.157609,12.1576 c 2.01744,2.01745 4.65666,3.02287 7.29588,3.02287 2.63922,0 5.27844,-1.00542 7.29589,-3.02287 4.02828,-4.02828 4.02828,-10.55687 0,-14.58516 z"
       id="path6877"
       style="fill:#ffd578;fill-opacity:1;stroke-width:6.61458" /><path
       class="pictogram_een"
       d="m 188.87071,84.811284 -0.26459,13.222552 c -0.11245,5.476874 4.23995,10.014484 9.71683,10.120314 0.0728,0 0.1389,0 0.20505,0 5.38427,0 9.80942,-4.31271 9.91526,-9.723439 l 0.26458,-13.222552 c 0.0463,-2.262187 -0.70114,-4.345781 -1.9513,-6.045729 h -15.98083 c -1.15756,1.580885 -1.8587,3.512344 -1.905,5.648854 z"
       id="path6879"
       style="fill:#ffd578;fill-opacity:1;stroke-width:6.61458" /></g><style
     type="text/css"
     id="style6859">
	.pictogram_een{fill:#F4D6B0;}
	.pictogram_drie{fill:#F27261;}
	.pictogram_vijf{fill:#01A59C;}
	.pictogram_zes{fill:#0C6667;}
	.st0{fill:#F8AD89;}
	.st1{fill:#E54D2E;}
	.st2{fill:#01A59C;}
	.st3{fill:none;}
</style></svg>
