<?xml version="1.0" encoding="UTF-8" standalone="no"?>
<!-- Created with Inkscape (http://www.inkscape.org/) -->

<svg
   width="153.11272mm"
   height="168.35756mm"
   viewBox="0 0 153.11272 168.35756"
   version="1.1"
   id="svg9559"
   xml:space="preserve"
   sodipodi:docname="rocket.svg"
   inkscape:version="1.2.2 (b0a8486541, 2022-12-01)"
   xmlns:inkscape="http://www.inkscape.org/namespaces/inkscape"
   xmlns:sodipodi="http://sodipodi.sourceforge.net/DTD/sodipodi-0.dtd"
   xmlns="http://www.w3.org/2000/svg"
   xmlns:svg="http://www.w3.org/2000/svg"><sodipodi:namedview
     id="namedview9561"
     pagecolor="#ffffff"
     bordercolor="#666666"
     borderopacity="1.0"
     inkscape:showpageshadow="2"
     inkscape:pageopacity="0.0"
     inkscape:pagecheckerboard="0"
     inkscape:deskcolor="#d1d1d1"
     inkscape:document-units="mm"
     showgrid="false"
     inkscape:zoom="0.2973261"
     inkscape:cx="-161.4389"
     inkscape:cy="538.12968"
     inkscape:window-width="3440"
     inkscape:window-height="1400"
     inkscape:window-x="0"
     inkscape:window-y="0"
     inkscape:window-maximized="1"
     inkscape:current-layer="layer1" /><defs
     id="defs9556" /><g
     inkscape:label="Layer 1"
     inkscape:groupmode="layer"
     id="layer1"
     transform="translate(-16.117995,-61.211077)"><path
       d="m 162.79804,193.40618 c -8.13593,-6.61458 -21.92734,-4.82864 -21.92734,-4.82864 a 8.4997397,8.4997397 0 0 0 -5.4901,-8.13594 25.730729,25.730729 0 0 0 -8.26823,-2.48047 c 0,0 -0.82683,-11.14557 -10.21954,-11.57552 a 30.95625,30.95625 0 0 0 -17.462495,5.65547 c 0,0 0.429948,-5.65547 -0.959115,-6.31693 a 7.9375001,7.9375001 0 0 0 -4.001823,-0.16536 c 0,0 -2.877344,0.29765 -2.877344,0 0,-0.29766 0.826823,-4.53099 0,-5.22553 a 19.016927,19.016927 0 0 0 -5.655468,-0.82682 l -0.727605,13.79141 a 27.946615,27.946615 0 0 0 -20.108333,-8.26823 19.84375,19.84375 0 0 0 -16.966406,11.70781 50.436198,50.436198 0 0 0 -1.091407,5.52318 23.878646,23.878646 0 0 0 -10.616406,1.65364 17.065625,17.065625 0 0 0 -8.400521,8.66511 22.390365,22.390365 0 0 0 -0.56224,5.52318 c 0,0 -7.573698,3.30729 -9.921875,8.6651 a 13.427604,13.427604 0 0 0 5.258594,17.62786 c 7.573698,4.13412 10.451042,4.69636 13.229167,4.69636 a 94.621616,94.621616 0 0 0 10.88099,-1.65365 21.497396,21.497396 0 0 0 10.748698,2.0836 c 6.184635,-0.42995 11.310937,-5.12631 16.536458,-4.96094 5.225521,0.16536 9.359636,3.14193 15.015104,3.14193 a 52.089844,52.089844 0 0 0 14.055987,-3.14193 14.353646,14.353646 0 0 0 10.88099,4.00182 22.026563,22.026563 0 0 0 9.92188,-3.04271 c 0.39687,0 7.5737,3.86954 12.27005,2.74506 a 15.808854,15.808854 0 0 0 6.61458,-3.00964 c 0,0 20.40599,2.3151 23.84558,-6.35 3.43958,-8.6651 4.13411,-18.75234 -4.00183,-25.49922 z M 78.462105,151.3705 a 42.994792,42.994792 0 0 0 0.56224,10.35183 c 0.396875,0.95911 2.315104,-0.16537 3.009635,-0.56224 a 33.998959,33.998959 0 0 0 0,-9.92188 c -0.264583,-1.65364 -2.447395,-0.26458 -3.571875,0.13229 z m 23.151045,-7.30911 c 0,0 -0.69453,10.48411 -0.56224,11.17865 0.13229,0.69453 2.64583,1.65364 3.04271,0.95911 a 57.976824,57.976824 0 0 0 0,-13.22917 c -0.56224,-0.82682 -1.35599,0.26459 -2.34818,1.09141 z M 71.71523,86.349149 a 41.539584,41.539584 0 0 0 0.529167,-7.606771 32.477604,32.477604 0 0 1 4.034896,-10.748698 c 0.562239,-1.091406 -0.826823,-0.959114 -1.521354,-0.826823 a 17.660938,17.660938 0 0 0 -4.266407,8.003646 c -1.81901,5.093229 -2.480468,10.484115 -1.81901,10.484115 0.661458,0 2.61276,1.091406 3.042708,0.694531 z m 0.694532,47.955731 c 0.396875,0 2.61276,-1.9513 3.307291,-2.91042 0.694532,-0.95911 0.264584,-2.87734 0.264584,-4.3987 0,-1.52135 2.61276,-1.65364 2.61276,-1.65364 l 2.215886,4.96094 3.571875,0.39687 0.429947,3.86953 a 24.275521,24.275521 0 0 0 -1.25677,4.53099 7.7059897,7.7059897 0 0 0 2.645833,7.30912 c 1.389063,1.65364 2.61276,6.91224 3.73724,7.17682 1.124479,0.26458 5.357812,-3.30729 7.573698,-7.17682 2.215885,-3.86953 0.694531,-9.92188 1.091406,-9.92188 0.396875,0 0,-4.3987 0,-4.3987 a 13.692188,13.692188 0 0 0 2.910418,-1.38906 c 1.48828,-0.95911 3.70417,-3.30729 4.13411,-3.30729 a 28.740365,28.740365 0 0 1 3.30729,6.05234 c 0.26459,0.95912 0.82683,0.69453 2.05053,0.56224 1.22369,-0.13229 7.04453,-18.32239 6.91224,-20.67057 -0.1323,-2.34818 -7.17683,-7.17682 -7.17683,-7.17682 a 111.85261,111.85261 0 0 0 0,-15.841931 C 110.04674,81.652795 104.95351,61.941336 95.031637,61.246805 85.109762,60.552274 79.851168,70.077274 76.279293,81.652795 a 68.394792,68.394792 0 0 0 -2.050521,24.540105 81.921615,81.921615 0 0 0 -9.525,6.61458 c -0.694531,0.95912 -0.529167,2.18282 1.256771,7.01146 a 114.76302,114.76302 0 0 0 6.449219,14.48594 z"
       fill="#1d1d1b"
       id="path9774"
       style="stroke-width:3.30729;fill:#54596e;fill-opacity:1" /><path
       d="m 91.558981,171.6442 c 0.396875,0 2.480468,0.66146 2.480468,1.09141 0,0.42995 0,18.05781 3.009636,20.53828 3.009635,2.48047 4.299475,1.09141 5.126305,0.39687 a 17.727084,17.727084 0 0 1 7.70599,-2.34817 c 3.30729,0 3.0427,10.35182 4.69635,10.6164 1.65365,0.26459 11.14557,-0.82682 16.53646,4.43177 a 10.682552,10.682552 0 0 1 0,14.32058 c -1.65365,0.69453 -5.39089,-1.65365 -6.61458,-1.25677 -1.2237,0.39687 -2.61276,3.47265 -3.3073,3.86953 a 12.534636,12.534636 0 0 1 -8.53281,1.65364 c -3.73724,-0.95911 -13.229165,-3.70416 -11.87318,-10.31875 1.35599,-6.61458 4.13412,-7.04453 5.35782,-6.61458 1.22369,0.42995 2.34817,0.95912 2.34817,0.26458 0,-0.69453 0,-2.08359 -0.52916,-2.34817 a 10.88099,10.88099 0 0 0 -5.65547,0 c -1.65365,0.69453 -6.912241,7.17682 -5.258595,11.31093 a 12.303125,12.303125 0 0 0 3.307295,5.22553 24.044011,24.044011 0 0 1 -11.575524,2.21588 c -6.614584,-0.42995 -12.931511,-3.86953 -16.106511,-3.30729 -3.175,0.56224 -10.219531,3.96875 -12.7,3.83646 -2.480469,-0.13229 -10.451042,-0.52917 -11.013282,-6.61459 a 9.9218751,9.9218751 0 0 1 8.830469,-11.01328 11.377083,11.377083 0 0 1 7.309115,1.91823 c 0,0.42995 -0.297656,1.38906 1.488281,0.82682 1.785938,-0.56223 3.307292,-1.78593 3.042709,-2.61276 -0.264584,-0.82682 -8.26823,-4.82864 -4.266407,-10.6164 4.001823,-5.78776 11.575521,-5.09323 13.229167,-3.30729 1.653646,1.78593 3.307292,3.70416 4.960938,2.87734 1.653645,-0.82682 4.960937,-4.96094 6.316927,-12.93151 1.355989,-7.97057 1.686719,-12.10469 1.686719,-12.10469 z"
       fill="#cbe7f5"
       id="path9776"
       style="fill:#fcd884;fill-opacity:1;stroke-width:3.30729" /><path
       d="m 71.71523,211.86087 c 1.12448,-0.56224 6.614584,1.25677 10.186459,-1.78594 a 15.742708,15.742708 0 0 0 4.696354,-6.87917 c 0.396875,1.65365 0.694531,1.91823 0.396875,3.3073 a 33.469792,33.469792 0 0 1 -2.050521,4.66328 c 0,0 5.490104,9.09505 4.663281,9.65729 -0.826822,0.56224 -0.826822,1.52135 -1.653645,0.42995 a 61.251042,61.251042 0 0 0 -5.060157,-8.13594 3.0427084,3.0427084 0 0 0 -1.488281,0.69453 44.582292,44.582292 0 0 1 3.307292,7.30912 c -0.56224,0 -1.389063,0.52916 -2.215886,-0.16537 a 57.381511,57.381511 0 0 1 -4.134114,-6.61458 31.485417,31.485417 0 0 1 -6.614584,0 c -1.422135,-0.39688 -0.859896,-2.05052 -0.03307,-2.48047 z"
       fill="#1d1d1b"
       id="path9778"
       style="stroke-width:3.30729" /><path
       d="m 87.292574,210.63717 1.488282,-2.08359 c 0,0 5.258593,7.4414 4.828645,8.43359 -0.429948,0.99219 -0.264583,1.2237 -0.826823,1.2237 a 68.130209,68.130209 0 0 1 -5.490104,-7.5737 z"
       fill="#1d1d1b"
       id="path9780"
       style="stroke-width:3.30729" /><path
       d="m 89.50846,205.67623 1.124479,-2.08359 c 0,0 4.960937,6.35 4.795573,7.60677 -0.165365,1.25677 -0.396875,2.18281 -0.959115,1.78594 -0.562239,-0.39688 -4.960937,-7.30912 -4.960937,-7.30912 z"
       fill="#1d1d1b"
       id="path9782"
       style="stroke-width:3.30729" /><path
       d="m 92.385803,201.40983 c 0,0 0.826823,-2.48047 1.35599,-2.48047 0.529167,0 4.134115,4.53099 3.869531,5.35781 a 7.5406251,7.5406251 0 0 1 -0.826823,1.65365 z"
       fill="#1d1d1b"
       id="path9784"
       style="stroke-width:3.30729" /><path
       d="m 99.959501,175.34837 a 29.467969,29.467969 0 0 1 13.229169,-5.49011 11.1125,11.1125 0 0 1 10.31875,4.3987 c 0.69453,1.38906 1.25677,3.70417 0.82682,4.00183 -0.42995,0.29765 -2.61276,0 -3.83646,0.39687 a 2.3481771,2.3481771 0 0 0 -1.52135,1.12448 c 0,0 -1.78594,-5.65547 -2.61276,-5.78776 a 2.3151042,2.3151042 0 0 0 -1.65365,0.52917 44.78073,44.78073 0 0 1 2.61276,6.61458 c -0.26458,0.42995 -1.25677,3.04271 -1.52135,2.34818 -0.26458,-0.69453 -4.00182,-8.40052 -4.96094,-8.26823 -0.95911,0.13229 -2.34818,0.69453 -2.05052,1.38906 a 67.997917,67.997917 0 0 0 7.97057,11.14557 c 1.12448,0.29766 1.65365,-1.65364 1.65365,-1.65364 a 7.2098959,7.2098959 0 0 1 5.52318,-4.53099 c 4.69635,-1.25677 10.6164,-0.16537 12.66692,4.3987 2.05052,4.56406 0.69453,8.53281 1.38907,9.09505 0.69453,0.56224 2.34817,1.2237 2.61276,0.82682 a 38.860677,38.860677 0 0 0 0.82682,-4.56406 c 0,0 12.83229,-1.48828 18.75234,4.56406 a 20.6375,20.6375 0 0 1 4.66328,18.45469 19.84375,19.84375 0 0 1 -2.05052,4.96094 102.52604,102.52604 0 0 0 -10.45104,-10.58334 c -0.82682,0 -2.05052,1.35599 -1.48828,1.91823 0.56224,0.56224 9.92188,9.92188 9.09505,9.92188 -0.82682,0 -1.65364,0.69453 -2.08359,0.56224 -0.42995,-0.1323 -8.83047,-9.78959 -9.26042,-9.39271 -0.42995,0.39687 -2.21588,1.12448 -1.52135,1.65364 0.69453,0.52917 7.83828,8.56589 7.83828,8.56589 l -3.70417,-0.29766 a 99.218751,99.218751 0 0 0 -6.61458,-7.4414 c -0.56224,0 -2.61276,0.56224 -2.08359,1.12448 0.52916,0.56223 6.08541,6.61458 4.82864,7.14375 -1.25677,0.52916 -4.66328,-1.09141 -5.65547,-0.95912 -0.99218,0.13229 -1.78593,1.38906 -2.48047,1.78594 a 5.4239584,5.4239584 0 0 1 -5.09323,0.82682 c 0,0 8.69818,-7.83828 4.96094,-15.57734 a 24.507031,24.507031 0 0 0 -10.45104,-10.88099 c 0,0 -3.86953,-6.61459 -4.96094,-7.01146 -1.0914,-0.39688 -2.34817,0 -1.9513,0.26458 a 35.851042,35.851042 0 0 1 3.73724,6.21771 19.281511,19.281511 0 0 0 -3.73724,-1.25677 h -1.91823 c 0,0 -3.30729,-7.17682 -6.05234,-8.13594 l -3.30729,-1.2237 c 0,0 -4.3987,-9.3927 -4.82865,-9.525 -0.42995,-0.13229 -2.08359,0.56224 -1.78594,1.12448 l 4.13412,8.10287 -1.91823,-0.26458 c 0,0 -3.30729,-6.61459 -4.00182,-6.61459 -0.69454,0 -1.78594,1.38906 -1.35599,1.78594 a 19.84375,19.84375 0 0 1 2.48046,5.39088 c -0.42994,0 -2.91041,2.34818 -3.0427,1.38907 -0.132296,-0.95912 -2.381254,-8.83047 -0.165369,-12.56771 z"
       fill="#85bfe9"
       id="path9786"
       style="fill:#fff2d4;fill-opacity:1;stroke-width:3.30729" /><path
       d="m 127.50924,189.70201 c 0.56224,-0.42994 1.38906,-1.65364 1.78594,-0.99218 0.39687,0.66146 4.13411,7.60677 3.30729,7.87135 -0.82682,0.26458 -2.64583,0.82682 -2.91042,0 -0.26458,-0.82682 -2.18281,-6.87917 -2.18281,-6.87917 z"
       fill="#1d1d1b"
       id="path9788"
       style="stroke-width:3.30729" /><path
       d="m 132.50325,189.13978 c 0,0 1.78594,-1.25678 2.0836,-0.26459 0.29765,0.99219 2.3151,5.78776 1.78593,6.18464 a 1.8851563,1.8851563 0 0 1 -2.34817,-0.56224 c -0.42995,-0.66146 -1.52136,-5.35781 -1.52136,-5.35781 z"
       fill="#1d1d1b"
       id="path9790"
       style="stroke-width:3.30729" /><path
       d="m 154.92669,205.80853 c 0.42995,-0.39688 1.25677,-1.91823 1.65365,-1.78594 0.39687,0.13229 6.35,6.35 6.2177,7.30911 -0.13229,0.95912 -0.26458,1.52136 -0.69453,1.52136 -0.42995,0 -7.17682,-7.04453 -7.17682,-7.04453 z"
       fill="#1d1d1b"
       id="path9792"
       style="stroke-width:3.30729" /><path
       d="m 83.687626,175.48066 a 24.60625,24.60625 0 0 0 -13.49375,-6.44922 c -7.044531,-0.29765 -13.229167,1.09141 -15.577344,4.13412 a 34.032032,34.032032 0 0 0 -4.398698,8.79739 c 0,0 2.182813,0 5.655469,4.82865 3.472656,4.82864 5.357813,7.17682 5.357813,7.17682 l 1.521354,-1.52135 c 0,0 -4.266406,-7.5737 -3.73724,-8.40052 a 1.5213542,1.5213542 0 0 1 1.653646,-0.95912 c 0.694531,0 3.604948,7.97057 4.001823,7.70599 0.396875,-0.26458 1.124479,-0.56224 1.256771,-0.95911 0.132292,-0.39688 -3.307292,-7.87136 -2.910417,-8.40052 0.396875,-0.52917 1.389063,-1.38907 2.083594,-0.82683 a 60.721876,60.721876 0 0 1 3.571875,7.97058 c 0,0 2.348177,-0.69454 2.083594,-1.09141 a 42.333334,42.333334 0 0 1 -2.910417,-8.96276 1.6205729,1.6205729 0 0 1 1.81901,-0.26458 95.051563,95.051563 0 0 1 3.307292,8.96276 c 0,0 3.307292,0.39687 3.307292,-0.16537 a 72.56198,72.56198 0 0 1 -3.571875,-10.58333 c 0.396875,-0.29766 2.877344,-0.82683 3.307292,-0.29766 0.429947,0.52917 3.009635,10.7487 3.571875,11.04636 0.562239,0.29765 2.745052,2.61276 2.745052,1.22369 0,-1.38906 -3.836459,-12.66692 -3.836459,-12.66692 a 1.0914063,1.0914063 0 0 1 1.653646,0 c 0.661459,0.95911 3.009636,7.70599 3.307292,7.01146 0.297656,-0.69454 0.23151,-7.30912 0.23151,-7.30912 z"
       fill="#85bfe9"
       id="path9794"
       style="fill:#fff2d4;fill-opacity:1;stroke-width:3.30729" /><path
       d="m 59.742834,195.88665 c 0,0 -5.490104,-8.83047 -11.013281,-9.92187 a 21.99349,21.99349 0 0 0 -15.147396,4.00182 9.9218751,9.9218751 0 0 0 -3.307292,5.92005 16.867188,16.867188 0 0 1 10.31875,0.56224 c 5.920053,2.05052 6.91224,5.35781 6.91224,5.35781 l -2.910417,1.12448 a 13.229167,13.229167 0 0 0 -8.830468,-3.60495 16.304948,16.304948 0 0 0 -15.015105,10.35183 11.542448,11.542448 0 0 0 7.871355,14.05599 47.426563,47.426563 0 0 0 15.147395,0.39687 c 0,0 -5.820833,-9.49193 1.752865,-16.10651 a 19.149219,19.149219 0 0 1 14.221354,-5.39088 c 0,0 -2.215885,-4.82865 0,-6.74688 z"
       fill="#85bfe9"
       id="path9796"
       style="fill:#fff2d4;fill-opacity:1;stroke-width:3.30729" /><path
       d="m 91.129033,66.340034 c 3.538802,-0.826823 11.178647,2.645834 12.964587,16.139584 1.78593,13.49375 0.69453,26.458332 -1.65365,32.808332 -2.34818,6.35 -5.390885,10.88099 -6.316927,10.88099 a 58.638282,58.638282 0 0 1 -9.921875,-0.42995 64.822917,64.822917 0 0 1 -6.316927,-29.765622 c 0.496094,-15.411979 6.58151,-28.508855 11.244792,-29.633334 z"
       fill="#e7413e"
       id="path9798"
       style="fill:#62b3f6;fill-opacity:1;stroke-width:3.30729" /><path
       d="m 90.037626,71.300972 a 1.1244792,1.1244792 0 0 1 1.91823,1.124479 c -0.264584,1.653646 -1.91823,7.838281 -2.612761,7.70599 -0.694531,-0.132292 -1.521354,-0.264584 -1.653646,-0.694532 a 52.222136,52.222136 0 0 1 2.348177,-8.135937 z"
       fill="#1d1d1b"
       id="path9800"
       style="stroke-width:3.30729;fill:#54596e;fill-opacity:1" /><path
       d="m 68.937105,114.9903 c 0.198438,-0.8599 5.126302,-4.13412 5.390886,-3.3073 a 70.709897,70.709897 0 0 1 2.215885,9.92188 c -0.264583,0.42995 -3.869531,4.56406 -4.431771,3.73724 a 63.301563,63.301563 0 0 1 -3.175,-10.35182 z"
       fill="#fab900"
       id="path9802"
       style="fill:#fcd884;fill-opacity:1;stroke-width:3.30729" /><path
       d="m 110.44362,110.02936 a 80.929428,80.929428 0 0 1 -2.64584,9.09505 c -1.35599,3.60495 -1.48828,4.00182 -1.48828,4.00182 0,0 2.48047,4.26641 2.87735,3.86953 0.39687,-0.39687 3.30729,-7.30911 4.13411,-9.92187 a 18.454688,18.454688 0 0 0 1.09141,-3.30729 z"
       fill="#fab900"
       id="path9804"
       style="fill:#fcd884;fill-opacity:1;stroke-width:3.30729" /><path
       d="m 87.557158,131.52675 a 55.595573,55.595573 0 0 1 8.135937,0 c 0,0.56224 0,3.73724 -0.562239,3.60495 -0.56224,-0.13229 -7.573698,-0.56224 -7.573698,-0.56224 z"
       fill="#fab900"
       id="path9806"
       style="fill:#febe76;fill-opacity:1;stroke-width:3.30729" /><path
       d="m 88.383981,136.91764 c 1.5875,-1.48828 8.003645,-1.25677 6.879166,3.30729 a 15.610417,15.610417 0 0 1 -4.398698,7.5737 18.02474,18.02474 0 0 0 -2.215885,-4.82865 4.7625,4.7625 0 0 1 -0.264583,-6.05234 z"
       fill="#f2910d"
       id="path9808"
       style="stroke-width:3.30729" /><path
       d="m 89.50846,84.133264 a 7.573698,7.573698 0 0 1 9.921875,6.614583 c 0.562239,5.78776 -5.622396,14.055993 -11.707813,9.095052 -6.085417,-4.960937 -5.820833,-12.534635 1.785938,-15.709635 z"
       fill="#1d1d1b"
       id="path9810"
       style="stroke-width:3.30729;fill:#54596e;fill-opacity:1" /><path
       d="m 90.401428,87.936649 a 4.2002605,4.2002605 0 0 1 5.721615,3.704167 c 0.297656,3.307291 -3.108854,7.739062 -6.614583,4.99401 a 4.795573,4.795573 0 0 1 0.892968,-8.698177 z"
       fill="#fab900"
       id="path9812"
       style="fill:#fff2d4;fill-opacity:1;stroke-width:3.30729" /><g
       fill="#1d1d1b"
       id="g9828"
       transform="matrix(3.3072917,0,0,3.3072917,-13.017583,39.352534)"
       style="fill:#54596e;fill-opacity:1"><path
         d="m 29.64,19.16 c 0.27,-0.23 0.71,-0.14 0.83,0.44 0.12,0.58 -0.66,0.63 -0.87,0.42 a 0.59,0.59 0 0 1 0.04,-0.86 z"
         id="path9814"
         style="fill:#54596e;fill-opacity:1" /><path
         d="m 31.66,19.48 c 0.27,-0.23 0.71,-0.15 0.83,0.43 0.12,0.58 -0.66,0.63 -0.87,0.42 a 0.58,0.58 0 0 1 0.04,-0.85 z"
         id="path9816"
         style="fill:#54596e;fill-opacity:1" /><path
         d="m 33.24,18.75 c 0.27,-0.23 0.71,-0.15 0.84,0.44 0.13,0.59 -0.67,0.62 -0.88,0.41 a 0.58,0.58 0 0 1 0.04,-0.85 z"
         id="path9818"
         style="fill:#54596e;fill-opacity:1" /><path
         d="m 34.45,17.12 c 0.27,-0.23 0.71,-0.14 0.83,0.44 0.12,0.58 -0.66,0.63 -0.87,0.42 a 0.59,0.59 0 0 1 0.04,-0.86 z"
         id="path9820"
         style="fill:#54596e;fill-opacity:1" /><path
         d="m 32.49,21.12 a 3.59,3.59 0 0 1 1.4,0.88 c 0,0.14 0,0.54 -0.15,0.52 a 9.93,9.93 0 0 1 -1.58,-0.83 c -0.06,-0.13 0.25,-0.53 0.33,-0.57 z"
         id="path9822"
         style="fill:#54596e;fill-opacity:1" /><path
         d="m 31.58,22.33 c 0.1,0 1.83,1.19 1.81,1.46 -0.02,0.27 -0.08,0.46 -0.29,0.44 A 10.08,10.08 0 0 1 31,22.81 c 0,-0.15 0.58,-0.48 0.58,-0.48 z"
         id="path9824"
         style="fill:#54596e;fill-opacity:1" /><path
         d="m 30.49,23.44 c 0.08,-0.05 2.21,1.45 2.11,1.62 -0.1,0.17 -0.27,0.4 -0.48,0.42 a 7.9,7.9 0 0 1 -2,-1.65 c -0.02,-0.17 0.23,-0.31 0.37,-0.39 z"
         id="path9826"
         style="fill:#54596e;fill-opacity:1" /></g></g></svg>
