<?xml version="1.0" encoding="UTF-8" standalone="no"?>
<!-- Created with Inkscape (http://www.inkscape.org/) -->

<svg
   width="211.5192mm"
   height="211.66681mm"
   viewBox="0 0 211.5192 211.66681"
   version="1.1"
   id="svg5266"
   xml:space="preserve"
   inkscape:version="1.2.2 (b0a8486541, 2022-12-01)"
   sodipodi:docname="typewriter.svg"
   xmlns:inkscape="http://www.inkscape.org/namespaces/inkscape"
   xmlns:sodipodi="http://sodipodi.sourceforge.net/DTD/sodipodi-0.dtd"
   xmlns="http://www.w3.org/2000/svg"
   xmlns:svg="http://www.w3.org/2000/svg"><sodipodi:namedview
     id="namedview5268"
     pagecolor="#ffffff"
     bordercolor="#666666"
     borderopacity="1.0"
     inkscape:showpageshadow="2"
     inkscape:pageopacity="0.0"
     inkscape:pagecheckerboard="0"
     inkscape:deskcolor="#d1d1d1"
     inkscape:document-units="mm"
     showgrid="false"
     inkscape:zoom="0.5946522"
     inkscape:cx="410.32388"
     inkscape:cy="418.73216"
     inkscape:window-width="3440"
     inkscape:window-height="1400"
     inkscape:window-x="0"
     inkscape:window-y="0"
     inkscape:window-maximized="1"
     inkscape:current-layer="layer1" /><defs
     id="defs5263">
	
	
	
	
	
</defs><g
     inkscape:label="Layer 1"
     inkscape:groupmode="layer"
     id="layer1"
     transform="translate(7.457402,-20.328954)"><path
       style="fill:#778da2;fill-opacity:1;stroke-width:0.420124"
       d="m 33.771006,190.76777 c 0,-3.9437 -3.226549,-7.17025 -7.170249,-7.17025 -3.9437,0 -7.170249,3.22655 -7.170249,7.17025 0,3.9437 3.226549,7.17025 7.170249,7.17025 3.9437,0 7.170249,-3.22655 7.170249,-7.17025 z m 0,-21.51033 c 0,-3.9437 -3.226549,-7.17025 -7.170249,-7.17025 -3.9437,0 -7.170249,3.22655 -7.170249,7.17025 0,3.9437 3.226549,7.17025 7.170249,7.17025 3.9437,0 7.170249,-3.22655 7.170249,-7.17025 z m 0,-21.51033 c 0,-3.9437 -3.226549,-7.17025 -7.170249,-7.17025 -3.9437,0 -7.170249,3.22655 -7.170249,7.17025 0,3.9437 3.226549,7.17025 7.170249,7.17025 3.9437,0 7.170249,-3.22655 7.170249,-7.17025 z m 28.680577,43.02066 c 0,-3.9437 -3.226549,-7.17025 -7.170249,-7.17025 -3.9437,0 -7.170249,3.22655 -7.170249,7.17025 0,3.9437 3.226549,7.17025 7.170249,7.17025 3.9437,0 7.170249,-3.22655 7.170249,-7.17025 z m 0,-21.51033 c 0,-3.9437 -3.226549,-7.17025 -7.170249,-7.17025 -3.9437,0 -7.170249,3.22655 -7.170249,7.17025 0,3.9437 3.226549,7.17025 7.170249,7.17025 3.9437,0 7.170249,-3.22655 7.170249,-7.17025 z m 0,-21.51033 c 0,-3.9437 -3.226549,-7.17025 -7.170249,-7.17025 -3.9437,0 -7.170249,3.22655 -7.170249,7.17025 0,3.9437 3.226549,7.17025 7.170249,7.17025 3.9437,0 7.170249,-3.22655 7.170249,-7.17025 z m 28.680157,43.02066 c 0,-3.9437 -3.226549,-7.17025 -7.170249,-7.17025 -3.9437,0 -7.170249,3.22655 -7.170249,7.17025 0,3.9437 3.226549,7.17025 7.170249,7.17025 3.9437,0 7.170249,-3.22655 7.170249,-7.17025 z m 0,-21.51033 c 0,-3.9437 -3.226549,-7.17025 -7.170249,-7.17025 -3.9437,0 -7.170249,3.22655 -7.170249,7.17025 0,3.9437 3.226549,7.17025 7.170249,7.17025 3.9437,0 7.170249,-3.22655 7.170249,-7.17025 z m 0,-21.51033 c 0,-3.9437 -3.226549,-7.17025 -7.170249,-7.17025 -3.9437,0 -7.170249,3.22655 -7.170249,7.17025 0,3.9437 3.226549,7.17025 7.170249,7.17025 3.9437,0 7.170249,-3.22655 7.170249,-7.17025 z m 28.68058,43.02066 c 0,-3.9437 -3.22655,-7.17025 -7.17025,-7.17025 -3.9437,0 -7.17025,3.22655 -7.17025,7.17025 0,3.9437 3.22655,7.17025 7.17025,7.17025 3.9437,0 7.17025,-3.22655 7.17025,-7.17025 z m 0,-21.51033 c 0,-3.9437 -3.22655,-7.17025 -7.17025,-7.17025 -3.9437,0 -7.17025,3.22655 -7.17025,7.17025 0,3.9437 3.22655,7.17025 7.17025,7.17025 3.9437,0 7.17025,-3.22655 7.17025,-7.17025 z m 0,-21.51033 c 0,-3.9437 -3.22655,-7.17025 -7.17025,-7.17025 -3.9437,0 -7.17025,3.22655 -7.17025,7.17025 0,3.9437 3.22655,7.17025 7.17025,7.17025 3.9437,0 7.17025,-3.22655 7.17025,-7.17025 z m 28.68057,43.02066 c 0,-3.9437 -3.22654,-7.17025 -7.17024,-7.17025 -3.9437,0 -7.17025,3.22655 -7.17025,7.17025 0,3.9437 3.22655,7.17025 7.17025,7.17025 3.9437,0 7.17024,-3.22655 7.17024,-7.17025 z m 0,-21.51033 c 0,-3.9437 -3.22654,-7.17025 -7.17024,-7.17025 -3.9437,0 -7.17025,3.22655 -7.17025,7.17025 0,3.9437 3.22655,7.17025 7.17025,7.17025 3.9437,0 7.17024,-3.22655 7.17024,-7.17025 z m 0,-21.51033 c 0,-3.9437 -3.22654,-7.17025 -7.17024,-7.17025 -3.9437,0 -7.17025,3.22655 -7.17025,7.17025 0,3.9437 3.22655,7.17025 7.17025,7.17025 3.9437,0 7.17024,-3.22655 7.17024,-7.17025 z m 28.68016,43.02066 c 0,-3.9437 -3.22655,-7.17025 -7.17025,-7.17025 -3.9437,0 -7.17025,3.22655 -7.17025,7.17025 0,3.9437 3.22655,7.17025 7.17025,7.17025 3.9437,0 7.17025,-3.22655 7.17025,-7.17025 z m 0,-21.51033 c 0,-3.9437 -3.22655,-7.17025 -7.17025,-7.17025 -3.9437,0 -7.17025,3.22655 -7.17025,7.17025 0,3.9437 3.22655,7.17025 7.17025,7.17025 3.9437,0 7.17025,-3.22655 7.17025,-7.17025 z m 0,-21.51033 c 0,-3.9437 -3.22655,-7.17025 -7.17025,-7.17025 -3.9437,0 -7.17025,3.22655 -7.17025,7.17025 0,3.9437 3.22655,7.17025 7.17025,7.17025 3.9437,0 7.17025,-3.22655 7.17025,-7.17025 z M -5.6647347,215.86301 H 202.26829 V 122.65145 H -5.6647347 Z"
       id="path5442" /><path
       style="fill:#62b3f6;fill-opacity:1;stroke-width:0.420124"
       d="M 202.26871,93.971294 V 122.65187 H -5.6647347 V 93.971294 c 0,-7.88698 6.45309836,-14.340078 14.3400785,-14.340078 h 7.1702492 14.340079 28.680577 c 0,15.77438 17.566627,28.680574 39.435741,28.680574 21.86911,0 39.43574,-12.906194 39.43574,-28.680574 h 28.68058 14.34008 7.17025 c 7.88698,-4.2e-4 14.34007,6.452678 14.34007,14.340078 z M -5.6647347,215.86301 H 202.26829 c 0,7.88698 -6.45309,14.34008 -14.34007,14.34008 H 8.6757639 c -7.88740024,0 -14.3404986,-6.45268 -14.3404986,-14.34008 z"
       id="path5444" /><path
       style="fill:#f2edda;stroke-width:0.420124"
       d="M 166.41789,54.535553 V 79.630796 H 137.73731 58.866249 30.186092 V 29.440311 c 0,-3.9437 3.226549,-7.17025 7.170249,-7.17025 H 137.73773 v 25.095243 c 0,3.9437 3.22655,7.170249 7.17025,7.170249 z"
       id="path5446" /><g
       id="g5452"
       transform="matrix(0.42012359,0,0,0.42012359,-7.1112202,20.749214)">
		<path
   style="fill:#aab1ba"
   d="m 413.043,71.887 v 8.533 h -51.2 c -9.387,0 -17.067,-7.68 -17.067,-17.067 V 3.62 Z"
   id="path5448" />
		<path
   style="fill:#aab1ba"
   d="m 157.043,140.153 h 187.733 c 0,37.547 -41.813,68.267 -93.867,68.267 -52.054,0 -93.866,-30.72 -93.866,-68.267"
   id="path5450" />
	</g><path
       style="fill:#ffd578;fill-opacity:1;stroke-width:0.420124"
       d="m 26.600757,140.57686 c 3.9437,0 7.170249,3.22655 7.170249,7.17025 0,3.9437 -3.226549,7.17025 -7.170249,7.17025 -3.9437,0 -7.170249,-3.22655 -7.170249,-7.17025 0,-3.9437 3.226969,-7.17025 7.170249,-7.17025 z m 0,21.51033 c 3.9437,0 7.170249,3.22655 7.170249,7.17025 0,3.9437 -3.226549,7.17025 -7.170249,7.17025 -3.9437,0 -7.170249,-3.22655 -7.170249,-7.17025 0,-3.9437 3.226969,-7.17025 7.170249,-7.17025 z m 57.361154,0 c 3.9437,0 7.17025,3.22655 7.17025,7.17025 0,3.9437 -3.22655,7.17025 -7.17025,7.17025 -3.9437,0 -7.170249,-3.22655 -7.170249,-7.17025 0,-3.9437 3.226549,-7.17025 7.170249,-7.17025 z m 0,21.51033 c 3.9437,0 7.17025,3.22655 7.17025,7.17025 0,3.9437 -3.22655,7.17025 -7.17025,7.17025 -3.9437,0 -7.170249,-3.22655 -7.170249,-7.17025 0,-3.9437 3.226549,-7.17025 7.170249,-7.17025 z m 0,-43.02066 c 3.9437,0 7.17025,3.22655 7.17025,7.17025 0,3.9437 -3.22655,7.17025 -7.17025,7.17025 -3.9437,0 -7.170249,-3.22655 -7.170249,-7.17025 0,-3.9437 3.226549,-7.17025 7.170249,-7.17025 z m 86.041309,0 c 3.9437,0 7.17025,3.22655 7.17025,7.17025 0,3.9437 -3.22655,7.17025 -7.17025,7.17025 -3.9437,0 -7.17025,-3.22655 -7.17025,-7.17025 0,-3.9437 3.22655,-7.17025 7.17025,-7.17025 z m 0,21.51033 c 3.9437,0 7.17025,3.22655 7.17025,7.17025 0,3.9437 -3.22655,7.17025 -7.17025,7.17025 -3.9437,0 -7.17025,-3.22655 -7.17025,-7.17025 0,-3.9437 3.22655,-7.17025 7.17025,-7.17025 z m 0,21.51033 c 3.9437,0 7.17025,3.22655 7.17025,7.17025 0,3.9437 -3.22655,7.17025 -7.17025,7.17025 -3.9437,0 -7.17025,-3.22655 -7.17025,-7.17025 0,-3.9437 3.22655,-7.17025 7.17025,-7.17025 z m -28.68057,-43.02066 c 3.9437,0 7.17024,3.22655 7.17024,7.17025 0,3.9437 -3.22654,7.17025 -7.17024,7.17025 -3.9437,0 -7.17025,-3.22655 -7.17025,-7.17025 0,-3.9437 3.22655,-7.17025 7.17025,-7.17025 z m 0,21.51033 c 3.9437,0 7.17024,3.22655 7.17024,7.17025 0,3.9437 -3.22654,7.17025 -7.17024,7.17025 -3.9437,0 -7.17025,-3.22655 -7.17025,-7.17025 0,-3.9437 3.22655,-7.17025 7.17025,-7.17025 z m 0,21.51033 c 3.9437,0 7.17024,3.22655 7.17024,7.17025 0,3.9437 -3.22654,7.17025 -7.17024,7.17025 -3.9437,0 -7.17025,-3.22655 -7.17025,-7.17025 0,-3.9437 3.22655,-7.17025 7.17025,-7.17025 z m -86.041316,0 c 3.9437,0 7.170249,3.22655 7.170249,7.17025 0,3.9437 -3.226549,7.17025 -7.170249,7.17025 -3.9437,0 -7.170249,-3.22655 -7.170249,-7.17025 0,-3.9437 3.226549,-7.17025 7.170249,-7.17025 z m 57.360736,-43.02066 c 3.9437,0 7.17025,3.22655 7.17025,7.17025 0,3.9437 -3.22655,7.17025 -7.17025,7.17025 -3.9437,0 -7.17025,-3.22655 -7.17025,-7.17025 0,-3.9437 3.22697,-7.17025 7.17025,-7.17025 z m 0,21.51033 c 3.9437,0 7.17025,3.22655 7.17025,7.17025 0,3.9437 -3.22655,7.17025 -7.17025,7.17025 -3.9437,0 -7.17025,-3.22655 -7.17025,-7.17025 0,-3.9437 3.22697,-7.17025 7.17025,-7.17025 z m 0,21.51033 c 3.9437,0 7.17025,3.22655 7.17025,7.17025 0,3.9437 -3.22655,7.17025 -7.17025,7.17025 -3.9437,0 -7.17025,-3.22655 -7.17025,-7.17025 0,-3.9437 3.22697,-7.17025 7.17025,-7.17025 z m -86.041313,0 c 3.9437,0 7.170249,3.22655 7.170249,7.17025 0,3.9437 -3.226549,7.17025 -7.170249,7.17025 -3.9437,0 -7.170249,-3.22655 -7.170249,-7.17025 0,-3.9437 3.226969,-7.17025 7.170249,-7.17025 z m 28.680577,-43.02066 c 3.9437,0 7.170249,3.22655 7.170249,7.17025 0,3.9437 -3.226549,7.17025 -7.170249,7.17025 -3.9437,0 -7.170249,-3.22655 -7.170249,-7.17025 0,-3.9437 3.226549,-7.17025 7.170249,-7.17025 z m 0,21.51033 c 3.9437,0 7.170249,3.22655 7.170249,7.17025 0,3.9437 -3.226549,7.17025 -7.170249,7.17025 -3.9437,0 -7.170249,-3.22655 -7.170249,-7.17025 0,-3.9437 3.226549,-7.17025 7.170249,-7.17025 z"
       id="path5454" /><path
       style="fill:#54596e;fill-opacity:1;stroke-width:0.420124"
       d="M 187.92822,231.99576 H 8.6757639 c -8.96249651,0 -16.1327458,-7.17025 -16.1327458,-16.13275 0,-1.07552 0.7171509,-1.79267 1.7926673,-1.79267 H 187.92864 c 1.07551,0 1.79266,0.71715 1.79266,1.79267 0,1.07552 -0.71715,1.79267 -1.79266,1.79267 H -3.8720673 c 0.7171509,6.09473 6.0947329,10.75516 12.5478312,10.75516 H 187.92864 c 6.81146,0 12.54783,-5.73594 12.54783,-12.54783 v -78.87106 c 0,-1.07552 0.71715,-1.79267 1.79266,-1.79267 1.07552,0 1.79267,0.71715 1.79267,1.79267 v 78.87106 c -8.4e-4,8.96292 -7.17067,16.13275 -16.13358,16.13275 z M -5.6647347,203.31518 c -1.0755164,0 -1.7926673,-0.71715 -1.7926673,-1.79267 V 93.970874 c 0,-8.962497 7.17024926,-16.132746 16.1327458,-16.132746 H 187.92822 c 8.96249,0 16.13274,7.170249 16.13274,16.132746 v 28.680576 c 0,1.07552 -0.71715,1.79267 -1.79267,1.79267 H 8.6753438 c -1.0755164,0 -1.7926674,-0.71715 -1.7926674,-1.79267 0,-1.07552 0.717151,-1.79267 1.7926674,-1.79267 H 200.47605 V 93.970874 c 0,-6.811464 -5.73595,-12.547832 -12.54783,-12.547832 h -48.39824 c -1.43388,16.132746 -19.3593,28.680578 -41.22799,28.680578 -21.868693,0 -39.794107,-12.547832 -41.227989,-28.680578 H 8.6757639 c -6.8114637,0 -12.5478312,5.735948 -12.5478312,12.547832 V 201.52251 c 0,1.07594 -0.717151,1.79267 -1.7926674,1.79267 z M 60.658916,81.423462 c 1.433882,13.981714 17.566628,25.095238 37.643074,25.095238 20.07645,0 36.20919,-11.113524 37.64307,-25.095238 z M 170.00322,199.73027 c -5.01921,0 -8.96249,-3.9437 -8.96249,-8.9625 0,-5.01922 3.9437,-8.9625 8.96249,-8.9625 5.01922,0 8.9625,3.9437 8.9625,8.9625 0,5.0188 -3.9437,8.9625 -8.9625,8.9625 z m 0,-14.34008 c -2.86818,0 -5.37758,2.5094 -5.37758,5.37758 0,2.86818 2.5094,5.37758 5.37758,5.37758 2.86819,0 5.37758,-2.5094 5.37758,-5.37758 0,-2.86818 -2.50981,-5.37758 -5.37758,-5.37758 z m -28.68057,14.34008 c -5.01922,0 -8.9625,-3.9437 -8.9625,-8.9625 0,-5.01922 3.9437,-8.9625 8.9625,-8.9625 5.01879,0 8.96249,3.9437 8.96249,8.9625 0,5.0188 -3.94328,8.9625 -8.96249,8.9625 z m 0,-14.34008 c -2.86819,0 -5.37759,2.5094 -5.37759,5.37758 0,2.86818 2.5094,5.37758 5.37759,5.37758 2.86818,0 5.37758,-2.5094 5.37758,-5.37758 0,-2.86818 -2.5094,-5.37758 -5.37758,-5.37758 z m -28.68058,14.34008 c -5.01922,0 -8.9625,-3.9437 -8.9625,-8.9625 0,-5.01922 3.9437,-8.9625 8.9625,-8.9625 5.01879,0 8.96249,3.9437 8.96249,8.9625 4.2e-4,5.0188 -3.94328,8.9625 -8.96249,8.9625 z m 0,-14.34008 c -2.86819,0 -5.37758,2.5094 -5.37758,5.37758 0,2.86818 2.50939,5.37758 5.37758,5.37758 2.86818,0 5.37758,-2.5094 5.37758,-5.37758 0,-2.86818 -2.5094,-5.37758 -5.37758,-5.37758 z m -28.680159,14.34008 c -5.019216,0 -8.962496,-3.9437 -8.962496,-8.9625 0,-5.01922 3.9437,-8.9625 8.962496,-8.9625 5.019217,0 8.962497,3.9437 8.962497,8.9625 0,5.0188 -3.9437,8.9625 -8.962497,8.9625 z m 0,-14.34008 c -2.868183,0 -5.377582,2.5094 -5.377582,5.37758 0,2.86818 2.509399,5.37758 5.377582,5.37758 2.868184,0 5.377582,-2.5094 5.377582,-5.37758 0,-2.86818 -2.509818,-5.37758 -5.377582,-5.37758 z m -28.680577,14.34008 c -5.019216,0 -8.962496,-3.9437 -8.962496,-8.9625 0,-5.01922 3.9437,-8.9625 8.962496,-8.9625 5.019217,0 8.962497,3.9437 8.962497,8.9625 0,5.0188 -3.94328,8.9625 -8.962497,8.9625 z m 0,-14.34008 c -2.868184,0 -5.377582,2.5094 -5.377582,5.37758 0,2.86818 2.509398,5.37758 5.377582,5.37758 2.868184,0 5.377582,-2.5094 5.377582,-5.37758 0,-2.86818 -2.509398,-5.37758 -5.377582,-5.37758 z m -28.680577,14.34008 c -5.019217,0 -8.962497,-3.9437 -8.962497,-8.9625 0,-5.01922 3.943701,-8.9625 8.962497,-8.9625 5.018796,0 8.962497,3.9437 8.962497,8.9625 4.2e-4,5.0188 -3.94328,8.9625 -8.962497,8.9625 z m 0,-14.34008 c -2.868184,0 -5.377582,2.5094 -5.377582,5.37758 0,2.86818 2.509398,5.37758 5.377582,5.37758 2.868184,0 5.377582,-2.5094 5.377582,-5.37758 0,-2.86818 -2.509398,-5.37758 -5.377582,-5.37758 z m 143.402463,-7.17025 c -5.01921,0 -8.96249,-3.9437 -8.96249,-8.9625 0,-5.01922 3.9437,-8.9625 8.96249,-8.9625 5.01922,0 8.9625,3.9437 8.9625,8.9625 0,5.0188 -3.9437,8.9625 -8.9625,8.9625 z m 0,-14.34008 c -2.86818,0 -5.37758,2.5094 -5.37758,5.37758 0,2.86818 2.5094,5.37758 5.37758,5.37758 2.86819,0 5.37758,-2.5094 5.37758,-5.37758 0,-2.86818 -2.50981,-5.37758 -5.37758,-5.37758 z m -28.68057,14.34008 c -5.01922,0 -8.9625,-3.9437 -8.9625,-8.9625 0,-5.01922 3.9437,-8.9625 8.9625,-8.9625 5.01879,0 8.96249,3.9437 8.96249,8.9625 0,5.0188 -3.94328,8.9625 -8.96249,8.9625 z m 0,-14.34008 c -2.86819,0 -5.37759,2.5094 -5.37759,5.37758 0,2.86818 2.5094,5.37758 5.37759,5.37758 2.86818,0 5.37758,-2.5094 5.37758,-5.37758 0,-2.86818 -2.5094,-5.37758 -5.37758,-5.37758 z m -28.68058,14.34008 c -5.01922,0 -8.9625,-3.9437 -8.9625,-8.9625 0,-5.01922 3.9437,-8.9625 8.9625,-8.9625 5.01879,0 8.96249,3.9437 8.96249,8.9625 4.2e-4,5.0188 -3.94328,8.9625 -8.96249,8.9625 z m 0,-14.34008 c -2.86819,0 -5.37758,2.5094 -5.37758,5.37758 0,2.86818 2.50939,5.37758 5.37758,5.37758 2.86818,0 5.37758,-2.5094 5.37758,-5.37758 0,-2.86818 -2.5094,-5.37758 -5.37758,-5.37758 z m -28.680159,14.34008 c -5.019216,0 -8.962496,-3.9437 -8.962496,-8.9625 0,-5.01922 3.9437,-8.9625 8.962496,-8.9625 5.019217,0 8.962497,3.9437 8.962497,8.9625 0,5.0188 -3.9437,8.9625 -8.962497,8.9625 z m 0,-14.34008 c -2.868183,0 -5.377582,2.5094 -5.377582,5.37758 0,2.86818 2.509399,5.37758 5.377582,5.37758 2.868184,0 5.377582,-2.5094 5.377582,-5.37758 0,-2.86818 -2.509818,-5.37758 -5.377582,-5.37758 z m -28.680577,14.34008 c -5.019216,0 -8.962496,-3.9437 -8.962496,-8.9625 0,-5.01922 3.9437,-8.9625 8.962496,-8.9625 5.019217,0 8.962497,3.9437 8.962497,8.9625 0,5.0188 -3.94328,8.9625 -8.962497,8.9625 z m 0,-14.34008 c -2.868184,0 -5.377582,2.5094 -5.377582,5.37758 0,2.86818 2.509398,5.37758 5.377582,5.37758 2.868184,0 5.377582,-2.5094 5.377582,-5.37758 0,-2.86818 -2.509398,-5.37758 -5.377582,-5.37758 z m -28.680577,14.34008 c -5.019217,0 -8.962497,-3.9437 -8.962497,-8.9625 0,-5.01922 3.943701,-8.9625 8.962497,-8.9625 5.018796,0 8.962497,3.9437 8.962497,8.9625 4.2e-4,5.0188 -3.94328,8.9625 -8.962497,8.9625 z m 0,-14.34008 c -2.868184,0 -5.377582,2.5094 -5.377582,5.37758 0,2.86818 2.509398,5.37758 5.377582,5.37758 2.868184,0 5.377582,-2.5094 5.377582,-5.37758 0,-2.86818 -2.509398,-5.37758 -5.377582,-5.37758 z m 143.402463,-7.17025 c -5.01921,0 -8.96249,-3.9437 -8.96249,-8.9625 0,-5.01879 3.9437,-8.96249 8.96249,-8.96249 5.01922,0 8.9625,3.9437 8.9625,8.96249 0,5.0188 -3.9437,8.9625 -8.9625,8.9625 z m 0,-14.34008 c -2.86818,0 -5.37758,2.5094 -5.37758,5.37758 0,2.86819 2.5094,5.37759 5.37758,5.37759 2.86819,0 5.37758,-2.5094 5.37758,-5.37759 0,-2.86818 -2.50981,-5.37758 -5.37758,-5.37758 z m -28.68057,14.34008 c -5.01922,0 -8.9625,-3.9437 -8.9625,-8.9625 0,-5.01879 3.9437,-8.96249 8.9625,-8.96249 5.01879,0 8.96249,3.9437 8.96249,8.96249 0,5.0188 -3.94328,8.9625 -8.96249,8.9625 z m 0,-14.34008 c -2.86819,0 -5.37759,2.5094 -5.37759,5.37758 0,2.86819 2.5094,5.37759 5.37759,5.37759 2.86818,0 5.37758,-2.5094 5.37758,-5.37759 0,-2.86818 -2.5094,-5.37758 -5.37758,-5.37758 z m -28.68058,14.34008 c -5.01922,0 -8.9625,-3.9437 -8.9625,-8.9625 0,-5.01879 3.9437,-8.96249 8.9625,-8.96249 5.01879,0 8.96249,3.9437 8.96249,8.96249 0,5.0188 -3.94328,8.9625 -8.96249,8.9625 z m 0,-14.34008 c -2.86819,0 -5.37758,2.5094 -5.37758,5.37758 0,2.86819 2.50939,5.37759 5.37758,5.37759 2.86818,0 5.37758,-2.5094 5.37758,-5.37759 0,-2.86818 -2.5094,-5.37758 -5.37758,-5.37758 z m -28.680159,14.34008 c -5.019216,0 -8.962496,-3.9437 -8.962496,-8.9625 0,-5.01879 3.9437,-8.96249 8.962496,-8.96249 5.019217,0 8.962497,3.9437 8.962497,8.96249 0,5.0188 -3.9437,8.9625 -8.962497,8.9625 z m 0,-14.34008 c -2.868183,0 -5.377582,2.5094 -5.377582,5.37758 0,2.86819 2.509399,5.37759 5.377582,5.37759 2.868184,0 5.377582,-2.5094 5.377582,-5.37759 0,-2.86818 -2.509818,-5.37758 -5.377582,-5.37758 z m -28.680577,14.34008 c -5.019216,0 -8.962496,-3.9437 -8.962496,-8.9625 0,-5.01879 3.9437,-8.96249 8.962496,-8.96249 5.019217,0 8.962497,3.9437 8.962497,8.96249 0,5.0188 -3.94328,8.9625 -8.962497,8.9625 z m 0,-14.34008 c -2.868184,0 -5.377582,2.5094 -5.377582,5.37758 0,2.86819 2.509398,5.37759 5.377582,5.37759 2.868184,0 5.377582,-2.5094 5.377582,-5.37759 0,-2.86818 -2.509398,-5.37758 -5.377582,-5.37758 z m -28.680577,14.34008 c -5.019217,0 -8.962497,-3.9437 -8.962497,-8.9625 0,-5.01879 3.943701,-8.96249 8.962497,-8.96249 5.018796,0 8.962497,3.9437 8.962497,8.96249 0,5.0188 -3.94328,8.9625 -8.962497,8.9625 z m 0,-14.34008 c -2.868184,0 -5.377582,2.5094 -5.377582,5.37758 0,2.86819 2.509398,5.37759 5.377582,5.37759 2.868184,0 5.377582,-2.5094 5.377582,-5.37759 0,-2.86818 -2.509398,-5.37758 -5.377582,-5.37758 z M 180.75839,67.083384 c -1.07552,0 -1.79267,-0.717151 -1.79267,-1.792667 V 43.780389 c 0,-1.075517 0.71715,-1.792668 1.79267,-1.792668 h 14.34007 c 1.07552,0 1.79267,0.717151 1.79267,1.792668 0,1.075516 -0.71715,1.792667 -1.79267,1.792667 h -12.54783 v 19.717661 c 0,1.075516 -0.71673,1.792667 -1.79224,1.792667 z m -14.3405,0 c -1.07552,0 -1.79267,-0.717151 -1.79267,-1.792667 V 51.667789 L 139.52998,26.572127 v 20.793176 c 0,2.868184 2.5094,5.377582 5.37758,5.377582 h 7.17025 c 1.07552,0 1.79267,0.717151 1.79267,1.792668 0,1.075516 -0.71715,1.792667 -1.79267,1.792667 h -7.17025 c -5.01922,0 -8.9625,-3.9437 -8.9625,-8.962496 V 22.270061 c 0,-0.717151 0.35837,-1.433882 1.07552,-1.792667 0.71715,-0.358366 1.43388,0 1.79267,0.358365 l 28.68057,28.680577 c 0.35837,0.358366 0.35837,0.717151 0.35837,1.433882 v 14.340078 c 0.35837,1.075937 -0.35879,1.793088 -1.4343,1.793088 z m -136.231798,0 c -1.075517,0 -1.792668,-0.717151 -1.792668,-1.792667 V 29.44031 c 0,-4.660431 4.302066,-8.962496 8.962497,-8.962496 h 86.041309 c 1.07552,0 1.79267,0.717151 1.79267,1.792667 0,1.075516 -0.71715,1.792667 -1.79267,1.792667 H 37.355921 c -2.868184,0 -5.377582,2.509399 -5.377582,5.377582 v 35.850407 c 0,1.075096 -0.716731,1.792247 -1.792247,1.792247 z m -14.340499,0 c -1.075516,0 -1.792667,-0.717151 -1.792667,-1.792667 V 45.573056 H 1.5055146 c -1.07551637,0 -1.79266734,-0.717151 -1.79266734,-1.792667 0,-1.075517 0.71715097,-1.792668 1.79266734,-1.792668 H 15.845593 c 1.075517,0 1.792667,0.717151 1.792667,1.792668 v 21.510328 c 0,1.075516 -0.71715,1.792667 -1.792667,1.792667 z M 123.39723,59.913135 H 87.546826 c -1.075517,0 -1.792668,-0.717151 -1.792668,-1.792668 0,-1.075516 0.717151,-1.792667 1.792668,-1.792667 h 35.850404 c 1.07552,0 1.79267,0.717151 1.79267,1.792667 0,1.075517 -0.71715,1.792668 -1.79267,1.792668 z m -50.190483,0 H 58.866669 c -1.075517,0 -1.792668,-0.717151 -1.792668,-1.792668 0,-1.075516 0.717151,-1.792667 1.792668,-1.792667 h 14.340078 c 1.075517,0 1.792668,0.717151 1.792668,1.792667 -4.2e-4,1.075517 -0.717151,1.792668 -1.792668,1.792668 z"
       id="path5458" /></g></svg>
